<mxfile host="Electron" agent="Mozilla/5.0 (Windows NT 10.0; Win64; x64) AppleWebKit/537.36 (KHTML, like Gecko) draw.io/27.0.9 Chrome/134.0.6998.205 Electron/35.4.0 Safari/537.36" version="27.0.9">
  <diagram name="Page-1" id="5AZwX4mJNjB4qcjXfDuc">
    <mxGraphModel dx="1426" dy="1941" grid="1" gridSize="10" guides="1" tooltips="1" connect="1" arrows="0" fold="1" page="1" pageScale="1" pageWidth="850" pageHeight="1100" math="0" shadow="0">
      <root>
        <mxCell id="0" />
        <mxCell id="1" parent="0" />
        <mxCell id="rPgAWxNJxuVqOzsiMsVi-1" value="" style="rounded=0;whiteSpace=wrap;html=1;fillColor=none;dashed=1;strokeColor=#000000;" parent="1" vertex="1">
          <mxGeometry x="50" y="110" width="160" height="730" as="geometry" />
        </mxCell>
        <mxCell id="rPgAWxNJxuVqOzsiMsVi-2" value="&lt;font style=&quot;font-size: 24px;&quot;&gt;Sources&lt;/font&gt;" style="rounded=0;whiteSpace=wrap;html=1;strokeColor=none;fontStyle=1" parent="1" vertex="1">
          <mxGeometry x="70" y="80" width="120" height="60" as="geometry" />
        </mxCell>
        <mxCell id="rPgAWxNJxuVqOzsiMsVi-6" value="" style="rounded=0;whiteSpace=wrap;html=1;fillColor=none;dashed=1;strokeColor=#000000;" parent="1" vertex="1">
          <mxGeometry x="285" y="110" width="855" height="730" as="geometry" />
        </mxCell>
        <mxCell id="rPgAWxNJxuVqOzsiMsVi-7" value="&lt;font style=&quot;font-size: 24px;&quot;&gt;Data Warehouse&lt;/font&gt;" style="rounded=0;whiteSpace=wrap;html=1;strokeColor=none;fontStyle=1" parent="1" vertex="1">
          <mxGeometry x="587.5" y="80" width="250" height="60" as="geometry" />
        </mxCell>
        <mxCell id="rPgAWxNJxuVqOzsiMsVi-8" value="" style="rounded=0;whiteSpace=wrap;html=1;fillColor=none;dashed=1;strokeColor=#000000;" parent="1" vertex="1">
          <mxGeometry x="1210" y="110" width="180" height="730" as="geometry" />
        </mxCell>
        <mxCell id="rPgAWxNJxuVqOzsiMsVi-9" value="&lt;font style=&quot;font-size: 24px;&quot;&gt;Consume&lt;/font&gt;" style="rounded=0;whiteSpace=wrap;html=1;strokeColor=none;fontStyle=1" parent="1" vertex="1">
          <mxGeometry x="1240" y="80" width="120" height="60" as="geometry" />
        </mxCell>
        <mxCell id="rPgAWxNJxuVqOzsiMsVi-10" value="&lt;font style=&quot;font-size: 20px;&quot;&gt;Bronze Layer&lt;/font&gt;" style="rounded=0;whiteSpace=wrap;html=1;strokeColor=#d79b00;fillColor=#ffe6cc;" parent="1" vertex="1">
          <mxGeometry x="350" y="160" width="180" height="40" as="geometry" />
        </mxCell>
        <mxCell id="rPgAWxNJxuVqOzsiMsVi-11" value="" style="rounded=0;whiteSpace=wrap;html=1;strokeColor=#d79b00;fillColor=none;" parent="1" vertex="1">
          <mxGeometry x="350" y="210" width="180" height="590" as="geometry" />
        </mxCell>
        <mxCell id="rPgAWxNJxuVqOzsiMsVi-12" value="&lt;font style=&quot;font-size: 20px;&quot;&gt;Silver Layer&lt;/font&gt;" style="rounded=0;whiteSpace=wrap;html=1;strokeColor=default;fillColor=none;fontColor=#333333;" parent="1" vertex="1">
          <mxGeometry x="621.25" y="160" width="182.5" height="40" as="geometry" />
        </mxCell>
        <mxCell id="rPgAWxNJxuVqOzsiMsVi-13" value="" style="rounded=0;whiteSpace=wrap;html=1;strokeColor=default;fillColor=none;fontColor=#333333;" parent="1" vertex="1">
          <mxGeometry x="621.25" y="210" width="182.5" height="590" as="geometry" />
        </mxCell>
        <mxCell id="rPgAWxNJxuVqOzsiMsVi-14" value="&lt;span style=&quot;font-size: 20px;&quot;&gt;Gold Layer&lt;/span&gt;" style="rounded=0;whiteSpace=wrap;html=1;strokeColor=#d6b656;fillColor=#fff2cc;" parent="1" vertex="1">
          <mxGeometry x="912.5" y="160" width="182.5" height="40" as="geometry" />
        </mxCell>
        <mxCell id="rPgAWxNJxuVqOzsiMsVi-15" value="" style="rounded=0;whiteSpace=wrap;html=1;strokeColor=#d6b656;fillColor=none;" parent="1" vertex="1">
          <mxGeometry x="912.5" y="210" width="182.5" height="590" as="geometry" />
        </mxCell>
        <mxCell id="rPgAWxNJxuVqOzsiMsVi-16" value="&lt;b&gt;CRM&lt;/b&gt;" style="image;aspect=fixed;html=1;points=[];align=center;fontSize=12;image=img/lib/azure2/general/Folder_Blank.svg;" parent="1" vertex="1">
          <mxGeometry x="95.5" y="250" width="69" height="56.00000000000001" as="geometry" />
        </mxCell>
        <mxCell id="rPgAWxNJxuVqOzsiMsVi-17" value="" style="image;aspect=fixed;html=1;points=[];align=center;fontSize=12;image=img/lib/azure2/general/File.svg;" parent="1" vertex="1">
          <mxGeometry x="139.5" y="277.68" width="29.48" height="36.32" as="geometry" />
        </mxCell>
        <mxCell id="rPgAWxNJxuVqOzsiMsVi-19" value="&lt;b&gt;ERP&lt;/b&gt;" style="image;aspect=fixed;html=1;points=[];align=center;fontSize=12;image=img/lib/azure2/general/Folder_Blank.svg;" parent="1" vertex="1">
          <mxGeometry x="92.76" y="370" width="69" height="56.00000000000001" as="geometry" />
        </mxCell>
        <mxCell id="rPgAWxNJxuVqOzsiMsVi-20" value="" style="image;aspect=fixed;html=1;points=[];align=center;fontSize=12;image=img/lib/azure2/general/File.svg;" parent="1" vertex="1">
          <mxGeometry x="136.76" y="397.68" width="29.48" height="36.32" as="geometry" />
        </mxCell>
        <mxCell id="rPgAWxNJxuVqOzsiMsVi-21" value="" style="endArrow=none;html=1;rounded=0;" parent="1" edge="1">
          <mxGeometry width="50" height="50" relative="1" as="geometry">
            <mxPoint x="78.43999999999998" y="480" as="sourcePoint" />
            <mxPoint x="181.56" y="480" as="targetPoint" />
          </mxGeometry>
        </mxCell>
        <mxCell id="rPgAWxNJxuVqOzsiMsVi-23" value="&lt;b&gt;Object Type: &lt;/b&gt;CSV Files&lt;div&gt;&lt;b&gt;&lt;br&gt;&lt;/b&gt;&lt;/div&gt;&lt;div&gt;&lt;b&gt;Interface:&lt;/b&gt; Files in Folder&lt;/div&gt;" style="text;html=1;align=left;verticalAlign=middle;whiteSpace=wrap;rounded=0;" parent="1" vertex="1">
          <mxGeometry x="60.5" y="500" width="139" height="30" as="geometry" />
        </mxCell>
        <mxCell id="rPgAWxNJxuVqOzsiMsVi-25" value="" style="html=1;verticalLabelPosition=bottom;align=center;labelBackgroundColor=#ffffff;verticalAlign=top;strokeWidth=2;strokeColor=#d79b00;shadow=0;dashed=0;shape=mxgraph.ios7.icons.data;fillColor=#ffe6cc;" parent="1" vertex="1">
          <mxGeometry x="415" y="368" width="50" height="60" as="geometry" />
        </mxCell>
        <mxCell id="rPgAWxNJxuVqOzsiMsVi-26" value="" style="html=1;verticalLabelPosition=bottom;align=center;labelBackgroundColor=#ffffff;verticalAlign=top;strokeWidth=2;strokeColor=#666666;shadow=0;dashed=0;shape=mxgraph.ios7.icons.data;fillColor=#f5f5f5;fontColor=#333333;" parent="1" vertex="1">
          <mxGeometry x="687.5" y="368" width="50" height="60" as="geometry" />
        </mxCell>
        <mxCell id="rPgAWxNJxuVqOzsiMsVi-27" value="" style="html=1;verticalLabelPosition=bottom;align=center;labelBackgroundColor=#ffffff;verticalAlign=top;strokeWidth=2;strokeColor=#d6b656;shadow=0;dashed=0;shape=mxgraph.ios7.icons.data;fillColor=#fff2cc;" parent="1" vertex="1">
          <mxGeometry x="975.25" y="370" width="50" height="60" as="geometry" />
        </mxCell>
        <mxCell id="rPgAWxNJxuVqOzsiMsVi-28" value="" style="shape=singleArrow;whiteSpace=wrap;html=1;fillColor=#b0e3e6;strokeColor=#0e8088;" parent="1" vertex="1">
          <mxGeometry x="220" y="368" width="100" height="60" as="geometry" />
        </mxCell>
        <mxCell id="rPgAWxNJxuVqOzsiMsVi-29" value="" style="shape=singleArrow;whiteSpace=wrap;html=1;fillColor=#b0e3e6;strokeColor=#0e8088;" parent="1" vertex="1">
          <mxGeometry x="530" y="368" width="100" height="60" as="geometry" />
        </mxCell>
        <mxCell id="rPgAWxNJxuVqOzsiMsVi-30" value="" style="shape=singleArrow;whiteSpace=wrap;html=1;fillColor=#b0e3e6;strokeColor=#0e8088;" parent="1" vertex="1">
          <mxGeometry x="812.5" y="370" width="100" height="60" as="geometry" />
        </mxCell>
        <mxCell id="rPgAWxNJxuVqOzsiMsVi-31" value="" style="shape=singleArrow;whiteSpace=wrap;html=1;fillColor=#b0e3e6;strokeColor=#0e8088;" parent="1" vertex="1">
          <mxGeometry x="1110" y="370" width="100" height="60" as="geometry" />
        </mxCell>
        <mxCell id="rPgAWxNJxuVqOzsiMsVi-32" value="&lt;font style=&quot;font-size: 15px;&quot;&gt;Raw Data&lt;/font&gt;" style="text;html=1;align=center;verticalAlign=middle;whiteSpace=wrap;rounded=0;" parent="1" vertex="1">
          <mxGeometry x="402.5" y="440" width="75" height="30" as="geometry" />
        </mxCell>
        <mxCell id="rPgAWxNJxuVqOzsiMsVi-33" value="&lt;font style=&quot;font-size: 15px;&quot;&gt;Cleaned, Standardized Data&lt;/font&gt;" style="text;html=1;align=center;verticalAlign=middle;whiteSpace=wrap;rounded=0;" parent="1" vertex="1">
          <mxGeometry x="632.5" y="440" width="160" height="30" as="geometry" />
        </mxCell>
        <mxCell id="rPgAWxNJxuVqOzsiMsVi-34" value="&lt;font style=&quot;font-size: 15px;&quot;&gt;Business-Ready Data&lt;/font&gt;" style="text;html=1;align=center;verticalAlign=middle;whiteSpace=wrap;rounded=0;" parent="1" vertex="1">
          <mxGeometry x="920.25" y="440" width="160" height="30" as="geometry" />
        </mxCell>
        <mxCell id="rPgAWxNJxuVqOzsiMsVi-36" value="" style="endArrow=none;html=1;rounded=0;" parent="1" edge="1">
          <mxGeometry width="50" height="50" relative="1" as="geometry">
            <mxPoint x="388.44" y="480" as="sourcePoint" />
            <mxPoint x="491.55999999999995" y="480" as="targetPoint" />
          </mxGeometry>
        </mxCell>
        <mxCell id="rPgAWxNJxuVqOzsiMsVi-37" value="&lt;b&gt;Object Type: &lt;/b&gt;Tables&lt;div&gt;&lt;b&gt;&lt;br&gt;&lt;/b&gt;&lt;/div&gt;&lt;div&gt;&lt;b&gt;Load:&lt;/b&gt;&lt;/div&gt;&lt;div&gt;&lt;ul&gt;&lt;li&gt;Batch Processing&lt;/li&gt;&lt;li&gt;Full Load (Trunc &amp;amp; Insert)&lt;/li&gt;&lt;/ul&gt;&lt;div&gt;No &lt;b&gt;Transformations&lt;/b&gt;&lt;/div&gt;&lt;/div&gt;&lt;div&gt;&lt;br&gt;&lt;/div&gt;&lt;div&gt;&lt;b&gt;Data Model:&lt;/b&gt; None (as-is)&lt;/div&gt;" style="text;html=1;align=left;verticalAlign=middle;whiteSpace=wrap;rounded=0;" parent="1" vertex="1">
          <mxGeometry x="370.5" y="570" width="139" height="30" as="geometry" />
        </mxCell>
        <mxCell id="rPgAWxNJxuVqOzsiMsVi-38" value="" style="endArrow=none;html=1;rounded=0;" parent="1" edge="1">
          <mxGeometry width="50" height="50" relative="1" as="geometry">
            <mxPoint x="660.94" y="480" as="sourcePoint" />
            <mxPoint x="764.06" y="480" as="targetPoint" />
          </mxGeometry>
        </mxCell>
        <mxCell id="rPgAWxNJxuVqOzsiMsVi-39" value="&lt;b&gt;Object Type: &lt;/b&gt;Tables&lt;div&gt;&lt;b&gt;&lt;br&gt;&lt;/b&gt;&lt;/div&gt;&lt;div&gt;&lt;b&gt;Load:&lt;/b&gt;&lt;/div&gt;&lt;div&gt;&lt;ul&gt;&lt;li&gt;Batch Processing&lt;/li&gt;&lt;li&gt;Full Load&amp;nbsp;&lt;/li&gt;&lt;li&gt;Truncate &amp;amp; Insert&lt;/li&gt;&lt;/ul&gt;&lt;div&gt;&lt;b&gt;Transformations:&lt;/b&gt;&lt;/div&gt;&lt;/div&gt;&lt;div&gt;&lt;ul&gt;&lt;li&gt;Data Cleansing&lt;/li&gt;&lt;li&gt;Data Standardization&lt;/li&gt;&lt;li&gt;Data Normalization&lt;/li&gt;&lt;li&gt;Derived Columns&lt;/li&gt;&lt;li&gt;Data Enrichment&lt;/li&gt;&lt;/ul&gt;&lt;/div&gt;&lt;div&gt;&lt;br&gt;&lt;/div&gt;&lt;div&gt;&lt;b&gt;Data Model:&lt;/b&gt; None (as-is)&lt;/div&gt;" style="text;html=1;align=left;verticalAlign=middle;whiteSpace=wrap;rounded=0;" parent="1" vertex="1">
          <mxGeometry x="635.5" y="620" width="157" height="30" as="geometry" />
        </mxCell>
        <mxCell id="rPgAWxNJxuVqOzsiMsVi-40" value="" style="endArrow=none;html=1;rounded=0;" parent="1" edge="1">
          <mxGeometry width="50" height="50" relative="1" as="geometry">
            <mxPoint x="958.44" y="480" as="sourcePoint" />
            <mxPoint x="1061.56" y="480" as="targetPoint" />
          </mxGeometry>
        </mxCell>
        <mxCell id="rPgAWxNJxuVqOzsiMsVi-42" value="&lt;b&gt;Object Type: &lt;/b&gt;Views&lt;div&gt;&lt;b&gt;&lt;br&gt;&lt;/b&gt;&lt;/div&gt;&lt;div&gt;No&lt;b&gt; Load&lt;/b&gt;&lt;/div&gt;&lt;div&gt;&lt;b style=&quot;background-color: transparent; color: light-dark(rgb(0, 0, 0), rgb(255, 255, 255));&quot;&gt;&lt;br&gt;&lt;/b&gt;&lt;/div&gt;&lt;div&gt;&lt;b style=&quot;background-color: transparent; color: light-dark(rgb(0, 0, 0), rgb(255, 255, 255));&quot;&gt;Transformations:&lt;/b&gt;&lt;/div&gt;&lt;div&gt;&lt;ul&gt;&lt;li&gt;Data Integrations&lt;/li&gt;&lt;li&gt;Aggregations&lt;/li&gt;&lt;li&gt;Business Logics&lt;/li&gt;&lt;/ul&gt;&lt;/div&gt;&lt;div&gt;&lt;b&gt;Data Model:&lt;/b&gt;&lt;/div&gt;&lt;div&gt;&lt;ul&gt;&lt;li&gt;Star Schema&lt;/li&gt;&lt;li&gt;Flat Table&lt;/li&gt;&lt;li&gt;Aggregated Table&lt;/li&gt;&lt;/ul&gt;&lt;/div&gt;" style="text;html=1;align=left;verticalAlign=middle;whiteSpace=wrap;rounded=0;" parent="1" vertex="1">
          <mxGeometry x="938" y="606" width="157" height="30" as="geometry" />
        </mxCell>
        <mxCell id="rPgAWxNJxuVqOzsiMsVi-44" value="" style="image;aspect=fixed;html=1;points=[];align=center;fontSize=12;image=img/lib/azure2/analytics/Power_BI_Embedded.svg;" parent="1" vertex="1">
          <mxGeometry x="1267.25" y="218.67" width="65.5" height="87.33" as="geometry" />
        </mxCell>
        <mxCell id="rPgAWxNJxuVqOzsiMsVi-45" value="" style="editableCssRules=.*;html=1;shape=image;verticalLabelPosition=bottom;labelBackgroundColor=#ffffff;verticalAlign=top;aspect=fixed;imageAspect=0;image=data:image/svg+xml,PHN2ZyB4bWxucz0iaHR0cDovL3d3dy53My5vcmcvMjAwMC9zdmciIHhtbG5zOnY9Imh0dHBzOi8vdmVjdGEuaW8vbmFubyIgd2lkdGg9IjIwLjAwMTA0NTIyNzA1MDc4IiBoZWlnaHQ9IjIwLjAwMTA0NTIyNzA1MDc4IiBmaWxsLXJ1bGU9ImV2ZW5vZGQiIHZpZXdCb3g9IjAgMCAyMC4wMDEwNDUyMjcwNTA3OCAyMC4wMDEwNDUyMjcwNTA3OCI+JiN4YTsJPHN0eWxlIHR5cGU9InRleHQvY3NzIj4mI3hhOwkuc3Qwe2ZpbGw6I2FlY2JmYTt9JiN4YTsJLnN0MXtmaWxsOiM2NjlkZjY7fSYjeGE7CS5zdDJ7ZmlsbDojNDI4NWY0O30mI3hhOwk8L3N0eWxlPiYjeGE7CTxwYXRoIGNsYXNzPSJzdDAiIGQ9Ik00LjczIDguODN2Mi42M2E0LjkxIDQuOTEgMCAwIDAgMS43MSAxLjc0VjguODN6Ii8+JiN4YTsJPHBhdGggY2xhc3M9InN0MSIgZD0iTTcuODkgNi40MXY3LjUzQTcuNjIgNy42MiAwIDAgMCA5IDE0YTggOCAwIDAgMCAxIDBWNi40MXoiLz4mI3hhOwk8cGF0aCBjbGFzcz0ic3QwIiBkPSJNMTEuNjQgOS44NnYzLjI5YTUgNSAwIDAgMCAxLjctMS44MlY5Ljg2eiIvPiYjeGE7CTxwYXRoIGNsYXNzPSJzdDIiIGQ9Ik0xNS43NCAxNC4zMmwtMS40MiAxLjQyYS40Mi40MiAwIDAgMCAwIC42bDMuNTQgMy41NGEuNDIuNDIgMCAwIDAgLjU5IDBsMS40My0xLjQzYS40Mi40MiAwIDAgMCAwLS41OWwtMy41NC0zLjU0YS40Mi40MiAwIDAgMC0uNiAwIi8+JiN4YTsJPHBhdGggY2xhc3M9InN0MSIgZD0iTTkgMGE5IDkgMCAxIDAgMCAxOEE5IDkgMCAxIDAgOSAwbTAgMTUuNjlhNi42OCA2LjY4IDAgMCAxIC4wMDctMTMuMzYgNi42OCA2LjY4IDAgMCAxIDQuNzI3IDExLjQwM0E2LjY4IDYuNjggMCAwIDEgOSAxNS42OSIvPiYjeGE7PC9zdmc+;" parent="1" vertex="1">
          <mxGeometry x="1265.01" y="400" width="70" height="70" as="geometry" />
        </mxCell>
        <mxCell id="rPgAWxNJxuVqOzsiMsVi-46" value="&lt;font style=&quot;font-size: 17px;&quot;&gt;BI &amp;amp; Reporting&lt;/font&gt;" style="text;html=1;align=center;verticalAlign=middle;whiteSpace=wrap;rounded=0;" parent="1" vertex="1">
          <mxGeometry x="1243.63" y="320" width="112.75" height="30" as="geometry" />
        </mxCell>
        <mxCell id="rPgAWxNJxuVqOzsiMsVi-47" value="&lt;font style=&quot;font-size: 17px;&quot;&gt;Ad-Hoc&lt;/font&gt;&lt;div&gt;&lt;font style=&quot;font-size: 17px;&quot;&gt;SQL Queries&lt;/font&gt;&lt;/div&gt;" style="text;html=1;align=center;verticalAlign=middle;whiteSpace=wrap;rounded=0;" parent="1" vertex="1">
          <mxGeometry x="1243.63" y="490" width="112.75" height="30" as="geometry" />
        </mxCell>
        <mxCell id="rPgAWxNJxuVqOzsiMsVi-48" value="&lt;font style=&quot;font-size: 17px;&quot;&gt;Machine Learning&lt;/font&gt;" style="text;html=1;align=center;verticalAlign=middle;whiteSpace=wrap;rounded=0;" parent="1" vertex="1">
          <mxGeometry x="1226.8200000000002" y="680" width="146.37" height="30" as="geometry" />
        </mxCell>
        <mxCell id="rPgAWxNJxuVqOzsiMsVi-49" value="" style="editableCssRules=.*;html=1;shape=image;verticalLabelPosition=bottom;labelBackgroundColor=#ffffff;verticalAlign=top;aspect=fixed;imageAspect=0;image=data:image/svg+xml,PHN2ZyB4bWxucz0iaHR0cDovL3d3dy53My5vcmcvMjAwMC9zdmciIHhtbG5zOnY9Imh0dHBzOi8vdmVjdGEuaW8vbmFubyIgd2lkdGg9IjE2Ljk3OTk5OTU0MjIzNjMyOCIgaGVpZ2h0PSIyMCIgdmlld0JveD0iMCAwIDE2Ljk3OTk5OTU0MjIzNjMyOCAyMCI+JiN4YTsJPHN0eWxlIHR5cGU9InRleHQvY3NzIj4mI3hhOwkuc3Qwe2ZpbGw6IzY2OWRmNjt9JiN4YTsJLnN0MXtmaWxsOiM0Mjg1ZjQ7fSYjeGE7CS5zdDJ7ZmlsbDojYWVjYmZhO30mI3hhOwk8L3N0eWxlPiYjeGE7CTxnIGNsYXNzPSJzdDAiPiYjeGE7CQk8cGF0aCBkPSJNOC40OSAxMC4yOUwuMjQgNS4zNSA4LjQ5LjU4bDguMjQgNC42N3pNMS43NiA1LjM2bDYuNzIgNCA2LjcyLTQuMTEtNi43MS0zLjc4eiIvPiYjeGE7CQk8cGF0aCBkPSJNOC40OSAxOS40NEwuMjEgMTMuODkgOC40OSA5LjNsOC4xNSA0LjY0em0tNi44LTUuNWw2LjggNC41NiA2LjctNC41LTYuNy0zLjgyeiIvPiYjeGE7CTwvZz4mI3hhOwk8ZyBjbGFzcz0ic3QxIj4mI3hhOwkJPHBhdGggZD0iTS42MTMgNS41MDJsLjY3NS0uMzcxIDcuNDc3IDEzLjYtLjY3NS4zNzF6Ii8+JiN4YTsJCTxwYXRoIGQ9Ik04LjE5NCAxOC44MjZsNy4zMDEtMTMuNTU5LjY3OC4zNjUtNy4zMDEgMTMuNTU5ek0uNzE2IDEzLjY4N0w4LjA5Ni45MDRsLjY2Ny4zODUtNy4zOCAxMi43ODN6Ii8+JiN4YTsJCTxwYXRoIGQ9Ik04LjE5NCAxLjIxNGwuNjY5LS4zODEgNy40MDUgMTIuOTg3LS42NjkuMzgxeiIvPiYjeGE7CQk8cGF0aCBkPSJNOC4xMy45NmguNzdWMTguOWgtLjc3ek0uNTUgNS40M2guNzd2OC42NkguNTV6bTE0Ljk3LS4wOWguNzdWMTRoLS43N3oiLz4mI3hhOwk8L2c+JiN4YTsJPGcgY2xhc3M9InN0MiI+JiN4YTsJCTxjaXJjbGUgY3g9IjguNTIiIGN5PSIxLjA3IiByPSIxLjA3Ii8+JiN4YTsJCTxjaXJjbGUgY3g9IjE1LjkxIiBjeT0iNS4zNCIgcj0iMS4wNyIvPiYjeGE7CQk8Y2lyY2xlIGN4PSIxLjA3IiBjeT0iNS4zNCIgcj0iMS4wNyIvPiYjeGE7CQk8Y2lyY2xlIGN4PSI4LjUyIiBjeT0iOS45MyIgcj0iMS42OCIvPiYjeGE7CQk8Y2lyY2xlIGN4PSIxNS45MSIgY3k9IjEzLjk0IiByPSIxLjA3Ii8+JiN4YTsJCTxjaXJjbGUgY3g9IjEuMDciIGN5PSIxMy45NCIgcj0iMS4wNyIvPiYjeGE7CQk8Y2lyY2xlIGN4PSI4LjUyIiBjeT0iMTguOTMiIHI9IjEuMDciLz4mI3hhOwkJPHBhdGggZD0iTTguNDkgMTAuMjlMLjI0IDUuMzUgOC40OS41OGw4LjI0IDQuNjd6TTEuNzYgNS4zNmw2LjcyIDQgNi43Mi00LjExLTYuNzEtMy43OHoiLz4mI3hhOwkJPHBhdGggZD0iTTguNDkgMTkuNDRMLjIxIDEzLjg5IDguNDkgOS4zbDguMTUgNC42NHptLTYuOC01LjVsNi44IDQuNTYgNi43LTQuNS02LjctMy44MnoiLz4mI3hhOwkJPHBhdGggZD0iTS42MTMgNS41MDJsLjY3NS0uMzcxIDcuNDc3IDEzLjYtLjY3NS4zNzF6Ii8+JiN4YTsJCTxwYXRoIGQ9Ik04LjE5NCAxOC44MjZsNy4zMDEtMTMuNTU5LjY3OC4zNjUtNy4zMDEgMTMuNTU5ek0uNzE2IDEzLjY4N0w4LjA5Ni45MDRsLjY2Ny4zODUtNy4zOCAxMi43ODN6Ii8+JiN4YTsJCTxwYXRoIGQ9Ik04LjE5NCAxLjIxNGwuNjY5LS4zODEgNy40MDUgMTIuOTg3LS42NjkuMzgxeiIvPiYjeGE7CQk8cGF0aCBkPSJNOC4xMy45NmguNzdWMTguOWgtLjc3ek0uNTUgNS40M2guNzd2OC42NkguNTV6bTE0Ljk3LS4wOWguNzdWMTRoLS43N3oiLz4mI3hhOwk8L2c+JiN4YTsJPGcgY2xhc3M9InN0MCI+JiN4YTsJCTxjaXJjbGUgY3g9IjguNTIiIGN5PSIxLjA3IiByPSIxLjA3Ii8+JiN4YTsJCTxjaXJjbGUgY3g9IjE1LjkxIiBjeT0iNS4zNCIgcj0iMS4wNyIvPiYjeGE7CQk8Y2lyY2xlIGN4PSIxLjA3IiBjeT0iNS4zNCIgcj0iMS4wNyIvPiYjeGE7CQk8Y2lyY2xlIGN4PSI4LjUyIiBjeT0iOS45MyIgcj0iMS42OCIvPiYjeGE7CQk8Y2lyY2xlIGN4PSIxNS45MSIgY3k9IjEzLjk0IiByPSIxLjA3Ii8+JiN4YTsJCTxjaXJjbGUgY3g9IjEuMDciIGN5PSIxMy45NCIgcj0iMS4wNyIvPiYjeGE7CQk8Y2lyY2xlIGN4PSI4LjUyIiBjeT0iMTguOTMiIHI9IjEuMDciLz4mI3hhOwk8L2c+JiN4YTs8L3N2Zz4=;" parent="1" vertex="1">
          <mxGeometry x="1261.5" y="570" width="77" height="90.59" as="geometry" />
        </mxCell>
        <mxCell id="rPgAWxNJxuVqOzsiMsVi-50" value="&lt;font style=&quot;font-size: 27px;&quot;&gt;&lt;b&gt;High Level Architecture&lt;/b&gt;&lt;/font&gt;" style="text;html=1;align=center;verticalAlign=middle;whiteSpace=wrap;rounded=0;" parent="1" vertex="1">
          <mxGeometry x="20.5" y="-30" width="350" height="30" as="geometry" />
        </mxCell>
        <mxCell id="rPgAWxNJxuVqOzsiMsVi-52" value="SQL Server" style="text;html=1;align=center;verticalAlign=middle;whiteSpace=wrap;rounded=0;fontSize=14;fontStyle=2" parent="1" vertex="1">
          <mxGeometry x="350" y="80" width="87.5" height="30" as="geometry" />
        </mxCell>
        <mxCell id="yObPhsGqLzTwb84VJ7aI-1" value="" style="image;aspect=fixed;perimeter=ellipsePerimeter;html=1;align=center;shadow=0;dashed=0;spacingTop=3;image=img/lib/active_directory/sql_server.svg;" vertex="1" parent="1">
          <mxGeometry x="311.5" y="60" width="38.5" height="50" as="geometry" />
        </mxCell>
      </root>
    </mxGraphModel>
  </diagram>
</mxfile>
